<svg xmlns:mydata="http://www.w3.org/2000/svg" mydata:contrastcolor="3b444b" mydata:template="Contrast"
    mydata:presentation="2.5" mydata:layouttype="undefined" mydata:specialfontid="undefined" mydata:id1="000"
    mydata:id2="469" mydata:companyname="Pokalyuk store" mydata:companytagline="" version="1.1"
    xmlns="http://www.w3.org/2000/svg" xmlns:xlink="http://www.w3.org/1999/xlink" viewBox="0 0 550 470"
    style="background-color: rgb(133, 113, 77); background-image: radial-gradient(circle closest-side, rgba(255, 255, 255, 0.07) 0%, rgba(255, 255, 255, 0) 100%);">
    <g fill="#101820" fill-rule="nonzero" stroke="none" stroke-width="1" stroke-linecap="butt" stroke-linejoin="miter"
        stroke-miterlimit="10" stroke-dasharray="" stroke-dashoffset="0" font-family="none" font-weight="none"
        font-size="none" text-anchor="none"
        style="mix-blend-mode: normal; stroke: rgb(16, 24, 32); stroke-width: 1; fill-opacity: 1; stroke-opacity: 0; transition: fill-opacity 1200ms linear 0s, stroke-opacity 1200ms 0s;">
        <g data-paper-data="{&quot;isGlobalGroup&quot;:true,&quot;bounds&quot;:{&quot;x&quot;:125.9859769333857,&quot;y&quot;:114.99999999999997,&quot;width&quot;:298.0280461332286,&quot;height&quot;:240.00000000000003}}"
            style="stroke: rgb(16, 24, 32); stroke-width: 1; fill-opacity: 1; stroke-opacity: 0; transition: fill-opacity 1200ms linear 0s, stroke-opacity 1200ms 0s;">
            <g data-paper-data="{&quot;isSecondaryText&quot;:true}"
                style="stroke: rgb(16, 24, 32); stroke-width: 1; fill-opacity: 1; stroke-opacity: 0; transition: fill-opacity 1200ms linear 0s, stroke-opacity 1200ms 0s;">
                <path
                    d="M206.82995,343.35108h7.86813v1.24192h-7.93888c-0.70742,0 -1.15284,0.23319 -1.33625,0.69956c-0.06288,0.21485 -0.09432,0.37991 -0.09432,0.4952v0.18865c0.1048,0.79651 0.48734,1.19476 1.1476,1.19476h5.2428c1.64018,0 2.7642,0.78079 3.37206,2.34236c0.15721,0.41921 0.23581,0.88559 0.23581,1.39913c0,1.15284 -0.41397,2.11441 -1.24192,2.88472c-0.6131,0.54498 -1.41747,0.81747 -2.4131,0.81747h-6.97992v-1.24192h7.02708c0.72839,0 1.29957,-0.22533 1.71354,-0.67598c0.43494,-0.5083 0.6524,-1.11092 0.6524,-1.80786c0,-1.11092 -0.469,-1.88385 -1.40699,-2.31878c-0.28821,-0.1048 -0.60786,-0.15721 -0.95895,-0.15721h-5.26638c-1.02708,0 -1.7607,-0.51616 -2.20088,-1.54847c-0.11004,-0.29869 -0.16507,-0.57118 -0.16507,-0.81747v-0.33013c0,-0.71266 0.31179,-1.33625 0.93537,-1.87074c0.37729,-0.33013 0.97991,-0.4952 1.80786,-0.4952z"
                    data-paper-data="{&quot;glyphName&quot;:&quot;S&quot;,&quot;glyphIndex&quot;:0,&quot;firstGlyphOfWord&quot;:true,&quot;word&quot;:1}"
                    style="stroke: rgb(16, 24, 32); stroke-width: 1; fill-opacity: 1; stroke-opacity: 0; stroke-dasharray: 75, 115; stroke-dashoffset: 0; transition: fill-opacity 1200ms linear 0s, stroke-opacity 1200ms 0s;">
                </path>
                <path d="M236.95461,343.35894h10.20263v1.2655h-4.46464v9.99041h-1.2655v-9.99041h-4.4725z"
                    data-paper-data="{&quot;glyphName&quot;:&quot;T&quot;,&quot;glyphIndex&quot;:1,&quot;word&quot;:1}"
                    style="stroke: rgb(16, 24, 32); stroke-width: 1; fill-opacity: 1; stroke-opacity: 0; stroke-dasharray: 43, 83; stroke-dashoffset: 0; transition: fill-opacity 1200ms linear 0s, stroke-opacity 1200ms 0s;">
                </path>
                <path
                    d="M273.06048,342.95806c1.53537,0 2.91616,0.5476 4.14236,1.6428c1.2524,1.25764 1.87861,2.70917 1.87861,4.35459c0,2.06463 -0.89345,3.74935 -2.68035,5.05416c-1.06376,0.66026 -2.13799,0.99039 -3.22271,0.99039h-0.23581c-1.7345,0 -3.26201,-0.74411 -4.58254,-2.23232c-0.59738,-0.87511 -0.89607,-1.40961 -0.89607,-1.6035c-0.28297,-0.6393 -0.42445,-1.38341 -0.42445,-2.23232c0,-1.50917 0.55546,-2.8821 1.66638,-4.11878c1.25764,-1.23668 2.70917,-1.85502 4.35459,-1.85502zM268.28929,349.02619c0,1.44105 0.61834,2.68821 1.85502,3.74149c0.91179,0.65502 1.8524,0.98253 2.82184,0.98253h0.18865c1.16856,0 2.2428,-0.44542 3.22271,-1.33625c0.96943,-0.97991 1.45415,-2.12489 1.45415,-3.43494c0,-1.49345 -0.6262,-2.75634 -1.87861,-3.78865c-0.89607,-0.65502 -1.86026,-0.98253 -2.89258,-0.98253c-1.48297,0 -2.74586,0.6262 -3.78865,1.87861c-0.65502,0.88035 -0.98253,1.86026 -0.98253,2.93974z"
                    data-paper-data="{&quot;glyphName&quot;:&quot;O&quot;,&quot;glyphIndex&quot;:2,&quot;word&quot;:1}"
                    style="stroke: rgb(16, 24, 32); stroke-width: 1; fill-opacity: 1; stroke-opacity: 0; stroke-dasharray: 68, 108; stroke-dashoffset: 0; transition: fill-opacity 1200ms linear 0s, stroke-opacity 1200ms 0s;">
                </path>
                <path
                    d="M303.79033,343.35108h4.44891c1.64542,0 2.84542,0.50044 3.60001,1.50131c0.6917,0.83319 1.03756,1.81572 1.03756,2.9476c0,1.29432 -0.46114,2.40262 -1.38341,3.3249c0.34061,0.29345 0.51092,0.74673 0.51092,1.35983v2.13013h-1.24192v-2.22446c0,-0.25153 -0.13886,-0.42445 -0.41659,-0.51878h-0.02358c-0.49782,0.23581 -1.18428,0.35371 -2.05939,0.35371h-4.75547v2.38952h-1.24192v-11.24019c0.68122,-0.01572 1.18952,-0.02358 1.52489,-0.02358zM303.50736,344.64016v6.29608c0.00524,0.03144 0.02096,0.04716 0.04716,0.04716h4.73188c1.55633,0 2.57817,-0.60786 3.06551,-1.82358c0.18865,-0.46638 0.28297,-0.92751 0.28297,-1.38341c0,-1.0166 -0.39039,-1.86812 -1.17118,-2.55459c-0.50306,-0.41921 -1.23668,-0.62882 -2.20088,-0.62882h-4.7083c-0.03144,0.00524 -0.04716,0.02096 -0.04716,0.04716z"
                    data-paper-data="{&quot;glyphName&quot;:&quot;R&quot;,&quot;glyphIndex&quot;:3,&quot;word&quot;:1}"
                    style="stroke: rgb(16, 24, 32); stroke-width: 1; fill-opacity: 1; stroke-opacity: 0; stroke-dasharray: 73, 113; stroke-dashoffset: 0; transition: fill-opacity 1200ms linear 0s, stroke-opacity 1200ms 0s;">
                </path>
                <path
                    d="M335.25475,343.34322h10.65853v1.24192h-9.41661v8.78779h9.41661v1.24192h-10.65853zM337.32201,347.87859h7.70307v1.24192h-7.70307z"
                    data-paper-data="{&quot;glyphName&quot;:&quot;E&quot;,&quot;glyphIndex&quot;:4,&quot;lastGlyphOfWord&quot;:true,&quot;word&quot;:1}"
                    style="stroke: rgb(16, 24, 32); stroke-width: 1; fill-opacity: 1; stroke-opacity: 0; stroke-dasharray: 81, 121; stroke-dashoffset: 0; transition: fill-opacity 1200ms linear 0s, stroke-opacity 1200ms 0s;">
                </path>
            </g>
            <g data-paper-data="{&quot;isPrimaryText&quot;:true}"
                style="stroke: rgb(16, 24, 32); stroke-width: 1; fill-opacity: 1; stroke-opacity: 0; transition: fill-opacity 1200ms linear 0s, stroke-opacity 1200ms 0s;">
                <path
                    d="M125.98598,334.07617v-40.72985h15.36399c2.70421,0 4.76941,0.12965 6.1956,0.38896c2.00037,0.3334 3.67661,0.96777 5.02872,1.90313c1.35211,0.93536 2.44027,2.24579 3.2645,3.93129c0.82423,1.6855 1.23634,3.5377 1.23634,5.5566c0,3.46361 -1.10206,6.39472 -3.30617,8.79331c-2.20412,2.3986 -6.18634,3.5979 -11.94668,3.5979h-10.4464v16.55866zM131.37588,312.71105h10.52975c3.48213,0 5.95482,-0.64827 7.41806,-1.94481c1.46324,-1.29654 2.19486,-3.12095 2.19486,-5.47325c0,-1.70402 -0.43064,-3.16263 -1.29191,-4.37582c-0.86127,-1.21319 -1.99574,-2.01427 -3.40342,-2.40323c-0.90758,-0.24079 -2.58382,-0.36118 -5.02872,-0.36118h-10.41862z"
                    data-paper-data="{&quot;glyphName&quot;:&quot;P&quot;,&quot;glyphIndex&quot;:0,&quot;firstGlyphOfWord&quot;:true,&quot;word&quot;:1}"
                    style="stroke: rgb(16, 24, 32); stroke-width: 1; fill-opacity: 1; stroke-opacity: 0; stroke-dasharray: 197, 237; stroke-dashoffset: 0; transition: fill-opacity 1200ms linear 0s, stroke-opacity 1200ms 0s;">
                </path>
                <path
                    d="M162.29833,314.23912c0,-6.76053 1.81515,-12.05318 5.44546,-15.87797c3.63031,-3.82479 8.31637,-5.73719 14.05819,-5.73719c3.75996,0 7.14949,0.89832 10.16857,2.69495c3.01908,1.79663 5.32044,4.30173 6.90407,7.5153c1.58363,3.21356 2.37544,6.85777 2.37544,10.9326c0,4.1304 -0.83349,7.82554 -2.50047,11.08541c-1.66698,3.25987 -4.02853,5.72792 -7.08466,7.40416c-3.05613,1.67624 -6.35304,2.51436 -9.89074,2.51436c-3.83405,0 -7.26062,-0.9261 -10.2797,-2.7783c-3.01908,-1.8522 -5.30655,-4.38045 -6.8624,-7.58475c-1.55585,-3.2043 -2.33377,-6.59383 -2.33377,-10.16857zM167.85493,314.32247c0,4.90833 1.31969,8.77479 3.95907,11.59939c2.63938,2.8246 5.95019,4.2369 9.93242,4.2369c4.05632,0 7.3949,-1.42619 10.01576,-4.27858c2.62086,-2.85239 3.93129,-6.89944 3.93129,-12.14116c0,-3.31544 -0.56029,-6.2095 -1.68087,-8.68218c-1.12058,-2.47269 -2.75978,-4.38971 -4.91759,-5.75108c-2.15781,-1.36137 -4.57956,-2.04205 -7.26525,-2.04205c-3.81553,0 -7.09855,1.31043 -9.84907,3.93129c-2.75052,2.62086 -4.12577,6.99668 -4.12577,13.12746z"
                    data-paper-data="{&quot;glyphName&quot;:&quot;O&quot;,&quot;glyphIndex&quot;:1,&quot;word&quot;:1}"
                    style="stroke: rgb(16, 24, 32); stroke-width: 1; fill-opacity: 1; stroke-opacity: 0; stroke-dasharray: 227, 267; stroke-dashoffset: 0; transition: fill-opacity 1200ms linear 0s, stroke-opacity 1200ms 0s;">
                </path>
                <path
                    d="M207.97356,334.07617v-40.72985h5.3899v20.19823l20.22601,-20.19823h7.30692l-17.08653,16.50309l17.83667,24.22676h-7.11244l-14.50272,-20.61497l-6.66792,6.50122v14.11375z"
                    data-paper-data="{&quot;glyphName&quot;:&quot;K&quot;,&quot;glyphIndex&quot;:2,&quot;word&quot;:1}"
                    style="stroke: rgb(16, 24, 32); stroke-width: 1; fill-opacity: 1; stroke-opacity: 0; stroke-dasharray: 218, 258; stroke-dashoffset: 0; transition: fill-opacity 1200ms linear 0s, stroke-opacity 1200ms 0s;">
                </path>
                <path
                    d="M241.67431,334.07617l15.64182,-40.72985h5.80664l16.66979,40.72985h-6.14004l-4.75089,-12.33564h-17.03097l-4.47306,12.33564zM253.42651,317.35081h13.80814l-4.2508,-11.27989c-1.29654,-3.42657 -2.25968,-6.24191 -2.88943,-8.44603c-0.51862,2.6116 -1.25023,5.20468 -2.19486,7.77923z"
                    data-paper-data="{&quot;glyphName&quot;:&quot;A&quot;,&quot;glyphIndex&quot;:3,&quot;word&quot;:1}"
                    style="stroke: rgb(16, 24, 32); stroke-width: 1; fill-opacity: 1; stroke-opacity: 0; stroke-dasharray: 205, 245; stroke-dashoffset: 0; transition: fill-opacity 1200ms linear 0s, stroke-opacity 1200ms 0s;">
                </path>
                <path d="M283.87666,334.07617v-40.72985h5.3899v35.9234h20.05931v4.80646z"
                    data-paper-data="{&quot;glyphName&quot;:&quot;L&quot;,&quot;glyphIndex&quot;:4,&quot;word&quot;:1}"
                    style="stroke: rgb(16, 24, 32); stroke-width: 1; fill-opacity: 1; stroke-opacity: 0; stroke-dasharray: 133, 173; stroke-dashoffset: 0; transition: fill-opacity 1200ms linear 0s, stroke-opacity 1200ms 0s;">
                </path>
                <path
                    d="M322.9951,334.07617v-17.25323l-15.69738,-23.47662h6.55678l8.02928,12.28008c1.48176,2.29673 2.86165,4.59345 4.13966,6.89018c1.22245,-2.13003 2.70421,-4.52863 4.44528,-7.19579l7.89037,-11.97447h6.27895l-16.25304,23.47662v17.25323z"
                    data-paper-data="{&quot;glyphName&quot;:&quot;Y&quot;,&quot;glyphIndex&quot;:5,&quot;word&quot;:1}"
                    style="stroke: rgb(16, 24, 32); stroke-width: 1; fill-opacity: 1; stroke-opacity: 0; stroke-dasharray: 156, 196; stroke-dashoffset: 0; transition: fill-opacity 1200ms linear 0s, stroke-opacity 1200ms 0s;">
                </path>
                <path
                    d="M376.19951,293.34632h5.3899v23.53219c0,4.09336 -0.46305,7.34397 -1.38915,9.75183c-0.9261,2.40786 -2.59771,4.36656 -5.01483,5.8761c-2.41712,1.50954 -5.58901,2.26431 -9.51567,2.26431c-3.81553,0 -6.93648,-0.65753 -9.36286,-1.97259c-2.42638,-1.31506 -4.15819,-3.2182 -5.19542,-5.7094c-1.03723,-2.49121 -1.55585,-5.89462 -1.55585,-10.21025v-23.53219h5.3899v23.5044c0,3.5377 0.32877,6.14467 0.9863,7.82091c0.65753,1.67624 1.78737,2.96815 3.38952,3.87573c1.60215,0.90758 3.56085,1.36137 5.8761,1.36137c3.96371,0 6.78831,-0.89832 8.47381,-2.69495c1.6855,-1.79663 2.52825,-5.25098 2.52825,-10.36305z"
                    data-paper-data="{&quot;glyphName&quot;:&quot;U&quot;,&quot;glyphIndex&quot;:6,&quot;word&quot;:1}"
                    style="stroke: rgb(16, 24, 32); stroke-width: 1; fill-opacity: 1; stroke-opacity: 0; stroke-dasharray: 200, 240; stroke-dashoffset: 0; transition: fill-opacity 1200ms linear 0s, stroke-opacity 1200ms 0s;">
                </path>
                <path
                    d="M390.34105,334.07617v-40.72985h5.3899v20.19823l20.22601,-20.19823h7.30692l-17.08653,16.50309l17.83667,24.22676h-7.11244l-14.50272,-20.61497l-6.66792,6.50122v14.11375z"
                    data-paper-data="{&quot;glyphName&quot;:&quot;K&quot;,&quot;glyphIndex&quot;:7,&quot;lastGlyphOfWord&quot;:true,&quot;word&quot;:1}"
                    style="stroke: rgb(16, 24, 32); stroke-width: 1; fill-opacity: 1; stroke-opacity: 0; stroke-dasharray: 218, 258; stroke-dashoffset: 0; transition: fill-opacity 1200ms linear 0s, stroke-opacity 1200ms 0s;">
                </path>
            </g>
            <g data-paper-data="{&quot;fillRule&quot;:&quot;nonzero&quot;,&quot;fillRuleOriginal&quot;:&quot;nonzero&quot;,&quot;isIcon&quot;:true,&quot;iconStyle&quot;:&quot;standalone&quot;,&quot;selectedEffects&quot;:{&quot;container&quot;:&quot;&quot;,&quot;transformation&quot;:&quot;&quot;,&quot;pattern&quot;:&quot;&quot;},&quot;bounds&quot;:{&quot;x&quot;:217.6525352671714,&quot;y&quot;:114.99999999999997,&quot;width&quot;:114.6949294656572,&quot;height&quot;:148.9582090494503},&quot;iconType&quot;:&quot;initial&quot;,&quot;initialText&quot;:&quot;PS&quot;,&quot;rawInitialId&quot;:543,&quot;monogramSpecial&quot;:&quot;melted-letters&quot;,&quot;suitableAsStandaloneIcon&quot;:true}"
                style="stroke: rgb(16, 24, 32); stroke-width: 1; fill-opacity: 1; stroke-opacity: 0; transition: fill-opacity 1200ms linear 0s, stroke-opacity 1200ms 0s;">
                <path
                    d="M309.26329,147.3759c-0.29036,-3.91995 -1.01628,-7.98509 -2.46812,-11.75986c-4.21032,-11.03394 -13.21169,-20.61605 -31.35962,-20.61605c-15.97018,0 -26.56857,7.69472 -31.5048,18.72867h13.21169c3.4844,-4.93624 9.14656,-8.13027 17.56719,-8.13027c9.58211,0 15.09908,4.3555 18.14793,9.58211c2.03256,3.4844 3.04885,7.40436 3.77477,10.59839c0.43555,2.03256 0.58074,4.93624 0.72592,6.24289h12.19541c0,-1.16146 -0.14518,-3.4844 -0.29036,-4.64587zM272.24151,192.23758c5.2266,2.6133 9.43693,4.93624 12.77615,7.25917l-55.46008,0.14518v44.13577h-11.90505v-108.59722h73.60801c1.88738,3.4844 3.04885,5.2266 4.06514,10.59839h-65.7681v43.11949h36.15068c2.03256,1.16146 4.21032,2.17775 6.53326,3.33922zM308.39219,135.90641c1.45184,4.21032 2.03256,8.27546 2.32294,12.05023c6.67844,2.6133 9.58211,8.27546 9.58211,19.3094c0,14.51835 -4.93624,21.0516 -16.69609,21.19678l-7.83991,0.14518c3.4844,2.6133 9.87247,8.85619 10.59839,10.88876c8.71101,-0.43555 25.98784,-5.66216 25.98784,-32.52109c0,-19.74495 -9.72729,-28.60114 -23.95527,-31.06926zM311.87659,224.90386c0,23.08417 -12.34059,39.05435 -37.7477,39.05435c-27.58486,0 -36.73141,-18.29311 -38.03806,-39.05435h12.34059c1.16146,15.82499 9.29174,28.45596 26.13302,28.45596c15.97018,0 24.68118,-8.56582 24.68118,-27.43967c0,-11.61467 -3.19404,-19.3094 -12.05023,-26.42339c-6.82362,-5.51697 -12.05023,-6.96881 -18.58348,-10.59839c-18.72867,-10.45321 -28.0204,-19.74495 -28.0204,-39.05435v-2.6133h12.34059v1.45184c0,15.24426 6.82362,22.21307 25.4071,31.21444c5.95252,2.90367 11.03394,5.66216 15.09908,8.71101c4.79105,3.4844 8.56582,6.96881 11.32431,10.88876c5.08142,7.11399 7.11399,15.24426 7.11399,25.4071z"
                    data-paper-data="{&quot;isPathIcon&quot;:true}"
                    style="stroke: rgb(16, 24, 32); stroke-width: 1; fill-opacity: 1; stroke-opacity: 0; stroke-dasharray: 1276, 1316; stroke-dashoffset: 0; transition: fill-opacity 1200ms linear 0s, stroke-opacity 1200ms 0s;">
                </path>
            </g>
        </g>
    </g>
</svg>