<svg class="svg-standalone-icon" width="100%"
    viewBox="217.6525352671714 114.99999999999997 114.6949294656572 148.9582090494503">
    <g data-paper-data="{&quot;fillRule&quot;:&quot;nonzero&quot;,&quot;fillRuleOriginal&quot;:&quot;nonzero&quot;,&quot;isIcon&quot;:true,&quot;iconStyle&quot;:&quot;standalone&quot;,&quot;selectedEffects&quot;:{&quot;container&quot;:&quot;&quot;,&quot;transformation&quot;:&quot;&quot;,&quot;pattern&quot;:&quot;&quot;},&quot;bounds&quot;:{&quot;x&quot;:217.6525352671714,&quot;y&quot;:114.99999999999997,&quot;width&quot;:114.6949294656572,&quot;height&quot;:148.9582090494503},&quot;iconType&quot;:&quot;initial&quot;,&quot;initialText&quot;:&quot;PS&quot;,&quot;rawInitialId&quot;:543,&quot;monogramSpecial&quot;:&quot;melted-letters&quot;,&quot;suitableAsStandaloneIcon&quot;:true}"
        fill-rule="nonzero">
        <path
            d="M309.26329,147.3759c-0.29036,-3.91995 -1.01628,-7.98509 -2.46812,-11.75986c-4.21032,-11.03394 -13.21169,-20.61605 -31.35962,-20.61605c-15.97018,0 -26.56857,7.69472 -31.5048,18.72867h13.21169c3.4844,-4.93624 9.14656,-8.13027 17.56719,-8.13027c9.58211,0 15.09908,4.3555 18.14793,9.58211c2.03256,3.4844 3.04885,7.40436 3.77477,10.59839c0.43555,2.03256 0.58074,4.93624 0.72592,6.24289h12.19541c0,-1.16146 -0.14518,-3.4844 -0.29036,-4.64587zM272.24151,192.23758c5.2266,2.6133 9.43693,4.93624 12.77615,7.25917l-55.46008,0.14518v44.13577h-11.90505v-108.59722h73.60801c1.88738,3.4844 3.04885,5.2266 4.06514,10.59839h-65.7681v43.11949h36.15068c2.03256,1.16146 4.21032,2.17775 6.53326,3.33922zM308.39219,135.90641c1.45184,4.21032 2.03256,8.27546 2.32294,12.05023c6.67844,2.6133 9.58211,8.27546 9.58211,19.3094c0,14.51835 -4.93624,21.0516 -16.69609,21.19678l-7.83991,0.14518c3.4844,2.6133 9.87247,8.85619 10.59839,10.88876c8.71101,-0.43555 25.98784,-5.66216 25.98784,-32.52109c0,-19.74495 -9.72729,-28.60114 -23.95527,-31.06926zM311.87659,224.90386c0,23.08417 -12.34059,39.05435 -37.7477,39.05435c-27.58486,0 -36.73141,-18.29311 -38.03806,-39.05435h12.34059c1.16146,15.82499 9.29174,28.45596 26.13302,28.45596c15.97018,0 24.68118,-8.56582 24.68118,-27.43967c0,-11.61467 -3.19404,-19.3094 -12.05023,-26.42339c-6.82362,-5.51697 -12.05023,-6.96881 -18.58348,-10.59839c-18.72867,-10.45321 -28.0204,-19.74495 -28.0204,-39.05435v-2.6133h12.34059v1.45184c0,15.24426 6.82362,22.21307 25.4071,31.21444c5.95252,2.90367 11.03394,5.66216 15.09908,8.71101c4.79105,3.4844 8.56582,6.96881 11.32431,10.88876c5.08142,7.11399 7.11399,15.24426 7.11399,25.4071z"
            data-paper-data="{&quot;isPathIcon&quot;:true}"></path>
    </g>
</svg>